<mxfile host="app.diagrams.net" agent="Mozilla/5.0 (Windows NT 10.0; Win64; x64) AppleWebKit/537.36 (KHTML, like Gecko) Chrome/139.0.0.0 Safari/537.36" version="28.2.5">
  <diagram name="第 1 页" id="_UYAW_pVhT7IHREErWUY">
    <mxGraphModel dx="2492" dy="751" grid="1" gridSize="10" guides="1" tooltips="1" connect="1" arrows="1" fold="1" page="1" pageScale="1" pageWidth="827" pageHeight="1169" math="0" shadow="0">
      <root>
        <mxCell id="0" />
        <mxCell id="1" parent="0" />
        <mxCell id="rrUzfyZFF7jd85tH5sFD-100" value="" style="edgeStyle=orthogonalEdgeStyle;rounded=0;orthogonalLoop=1;jettySize=auto;html=1;" edge="1" parent="1" source="rrUzfyZFF7jd85tH5sFD-98" target="rrUzfyZFF7jd85tH5sFD-99">
          <mxGeometry relative="1" as="geometry" />
        </mxCell>
        <mxCell id="rrUzfyZFF7jd85tH5sFD-98" value="" style="rounded=0;whiteSpace=wrap;html=1;" vertex="1" parent="1">
          <mxGeometry x="-230" y="1708" width="540" height="340" as="geometry" />
        </mxCell>
        <mxCell id="rrUzfyZFF7jd85tH5sFD-3" value="" style="edgeStyle=orthogonalEdgeStyle;rounded=0;orthogonalLoop=1;jettySize=auto;html=1;" edge="1" parent="1" source="rrUzfyZFF7jd85tH5sFD-1" target="rrUzfyZFF7jd85tH5sFD-2">
          <mxGeometry relative="1" as="geometry" />
        </mxCell>
        <mxCell id="rrUzfyZFF7jd85tH5sFD-1" value="操作载具" style="rounded=0;whiteSpace=wrap;html=1;" vertex="1" parent="1">
          <mxGeometry x="294" y="40" width="120" height="60" as="geometry" />
        </mxCell>
        <mxCell id="rrUzfyZFF7jd85tH5sFD-5" value="" style="edgeStyle=orthogonalEdgeStyle;rounded=0;orthogonalLoop=1;jettySize=auto;html=1;" edge="1" parent="1" source="rrUzfyZFF7jd85tH5sFD-2" target="rrUzfyZFF7jd85tH5sFD-4">
          <mxGeometry relative="1" as="geometry" />
        </mxCell>
        <mxCell id="rrUzfyZFF7jd85tH5sFD-7" value="" style="edgeStyle=orthogonalEdgeStyle;rounded=0;orthogonalLoop=1;jettySize=auto;html=1;" edge="1" parent="1" source="rrUzfyZFF7jd85tH5sFD-2" target="rrUzfyZFF7jd85tH5sFD-6">
          <mxGeometry relative="1" as="geometry" />
        </mxCell>
        <mxCell id="rrUzfyZFF7jd85tH5sFD-2" value="校验参数" style="whiteSpace=wrap;html=1;rounded=0;" vertex="1" parent="1">
          <mxGeometry x="294" y="180" width="120" height="60" as="geometry" />
        </mxCell>
        <mxCell id="rrUzfyZFF7jd85tH5sFD-4" value="1.载具条码&lt;div&gt;2.&lt;span style=&quot;background-color: transparent; color: light-dark(rgb(0, 0, 0), rgb(255, 255, 255));&quot;&gt;事务代码&lt;/span&gt;&lt;/div&gt;&lt;div&gt;&lt;span style=&quot;background-color: transparent;&quot;&gt;3.功能代码&lt;/span&gt;&lt;/div&gt;&lt;div&gt;&lt;span style=&quot;background-color: transparent;&quot;&gt;4.操作人&lt;/span&gt;&lt;/div&gt;&lt;div&gt;&lt;span style=&quot;background-color: transparent;&quot;&gt;5.载具版本号&lt;/span&gt;&lt;/div&gt;" style="ellipse;whiteSpace=wrap;html=1;rounded=0;" vertex="1" parent="1">
          <mxGeometry x="514" y="160" width="136" height="100" as="geometry" />
        </mxCell>
        <mxCell id="rrUzfyZFF7jd85tH5sFD-9" value="" style="edgeStyle=orthogonalEdgeStyle;rounded=0;orthogonalLoop=1;jettySize=auto;html=1;" edge="1" parent="1" source="rrUzfyZFF7jd85tH5sFD-6" target="rrUzfyZFF7jd85tH5sFD-8">
          <mxGeometry relative="1" as="geometry" />
        </mxCell>
        <mxCell id="rrUzfyZFF7jd85tH5sFD-10" value="为空" style="edgeLabel;html=1;align=center;verticalAlign=middle;resizable=0;points=[];" vertex="1" connectable="0" parent="rrUzfyZFF7jd85tH5sFD-9">
          <mxGeometry x="-0.22" y="-1" relative="1" as="geometry">
            <mxPoint as="offset" />
          </mxGeometry>
        </mxCell>
        <mxCell id="rrUzfyZFF7jd85tH5sFD-12" value="" style="edgeStyle=orthogonalEdgeStyle;rounded=0;orthogonalLoop=1;jettySize=auto;html=1;" edge="1" parent="1" source="rrUzfyZFF7jd85tH5sFD-6" target="rrUzfyZFF7jd85tH5sFD-11">
          <mxGeometry relative="1" as="geometry" />
        </mxCell>
        <mxCell id="rrUzfyZFF7jd85tH5sFD-6" value="是否校验载具数量" style="whiteSpace=wrap;html=1;rounded=0;" vertex="1" parent="1">
          <mxGeometry x="294" y="320" width="120" height="60" as="geometry" />
        </mxCell>
        <mxCell id="rrUzfyZFF7jd85tH5sFD-8" value="默认为Y" style="ellipse;whiteSpace=wrap;html=1;rounded=0;" vertex="1" parent="1">
          <mxGeometry x="514" y="310" width="80" height="80" as="geometry" />
        </mxCell>
        <mxCell id="rrUzfyZFF7jd85tH5sFD-14" value="" style="edgeStyle=orthogonalEdgeStyle;rounded=0;orthogonalLoop=1;jettySize=auto;html=1;" edge="1" parent="1" source="rrUzfyZFF7jd85tH5sFD-11" target="rrUzfyZFF7jd85tH5sFD-13">
          <mxGeometry relative="1" as="geometry" />
        </mxCell>
        <mxCell id="rrUzfyZFF7jd85tH5sFD-16" value="不存在" style="edgeLabel;html=1;align=center;verticalAlign=middle;resizable=0;points=[];" vertex="1" connectable="0" parent="rrUzfyZFF7jd85tH5sFD-14">
          <mxGeometry x="-0.225" y="3" relative="1" as="geometry">
            <mxPoint as="offset" />
          </mxGeometry>
        </mxCell>
        <mxCell id="rrUzfyZFF7jd85tH5sFD-18" value="" style="edgeStyle=orthogonalEdgeStyle;rounded=0;orthogonalLoop=1;jettySize=auto;html=1;" edge="1" parent="1" source="rrUzfyZFF7jd85tH5sFD-11" target="rrUzfyZFF7jd85tH5sFD-17">
          <mxGeometry relative="1" as="geometry" />
        </mxCell>
        <mxCell id="rrUzfyZFF7jd85tH5sFD-19" value="存在" style="edgeLabel;html=1;align=center;verticalAlign=middle;resizable=0;points=[];" vertex="1" connectable="0" parent="rrUzfyZFF7jd85tH5sFD-18">
          <mxGeometry x="-0.3" y="-4" relative="1" as="geometry">
            <mxPoint as="offset" />
          </mxGeometry>
        </mxCell>
        <mxCell id="rrUzfyZFF7jd85tH5sFD-11" value="查载具表是否存在" style="whiteSpace=wrap;html=1;rounded=0;" vertex="1" parent="1">
          <mxGeometry x="294" y="460" width="120" height="60" as="geometry" />
        </mxCell>
        <mxCell id="rrUzfyZFF7jd85tH5sFD-13" value="报错提示" style="whiteSpace=wrap;html=1;rounded=0;" vertex="1" parent="1">
          <mxGeometry x="494" y="460" width="120" height="60" as="geometry" />
        </mxCell>
        <mxCell id="rrUzfyZFF7jd85tH5sFD-21" value="" style="edgeStyle=orthogonalEdgeStyle;rounded=0;orthogonalLoop=1;jettySize=auto;html=1;" edge="1" parent="1" source="rrUzfyZFF7jd85tH5sFD-17" target="rrUzfyZFF7jd85tH5sFD-20">
          <mxGeometry relative="1" as="geometry" />
        </mxCell>
        <mxCell id="rrUzfyZFF7jd85tH5sFD-22" value="不一致" style="edgeLabel;html=1;align=center;verticalAlign=middle;resizable=0;points=[];" vertex="1" connectable="0" parent="rrUzfyZFF7jd85tH5sFD-21">
          <mxGeometry x="-0.55" y="-2" relative="1" as="geometry">
            <mxPoint x="8" y="-2" as="offset" />
          </mxGeometry>
        </mxCell>
        <mxCell id="rrUzfyZFF7jd85tH5sFD-24" value="" style="edgeStyle=orthogonalEdgeStyle;rounded=0;orthogonalLoop=1;jettySize=auto;html=1;" edge="1" parent="1" source="rrUzfyZFF7jd85tH5sFD-17" target="rrUzfyZFF7jd85tH5sFD-23">
          <mxGeometry relative="1" as="geometry" />
        </mxCell>
        <mxCell id="rrUzfyZFF7jd85tH5sFD-25" value="一致" style="edgeLabel;html=1;align=center;verticalAlign=middle;resizable=0;points=[];" vertex="1" connectable="0" parent="rrUzfyZFF7jd85tH5sFD-24">
          <mxGeometry x="-0.275" y="-4" relative="1" as="geometry">
            <mxPoint as="offset" />
          </mxGeometry>
        </mxCell>
        <mxCell id="rrUzfyZFF7jd85tH5sFD-17" value="校验载具版本号和入参版本号是否一致" style="whiteSpace=wrap;html=1;rounded=0;" vertex="1" parent="1">
          <mxGeometry x="294" y="600" width="120" height="60" as="geometry" />
        </mxCell>
        <mxCell id="rrUzfyZFF7jd85tH5sFD-20" value="报错提示" style="whiteSpace=wrap;html=1;rounded=0;" vertex="1" parent="1">
          <mxGeometry x="494" y="600" width="120" height="60" as="geometry" />
        </mxCell>
        <mxCell id="rrUzfyZFF7jd85tH5sFD-27" value="" style="edgeStyle=orthogonalEdgeStyle;rounded=0;orthogonalLoop=1;jettySize=auto;html=1;" edge="1" parent="1" source="rrUzfyZFF7jd85tH5sFD-23" target="rrUzfyZFF7jd85tH5sFD-26">
          <mxGeometry relative="1" as="geometry" />
        </mxCell>
        <mxCell id="rrUzfyZFF7jd85tH5sFD-28" value="是" style="edgeLabel;html=1;align=center;verticalAlign=middle;resizable=0;points=[];" vertex="1" connectable="0" parent="rrUzfyZFF7jd85tH5sFD-27">
          <mxGeometry x="-0.2" relative="1" as="geometry">
            <mxPoint as="offset" />
          </mxGeometry>
        </mxCell>
        <mxCell id="rrUzfyZFF7jd85tH5sFD-32" value="" style="edgeStyle=orthogonalEdgeStyle;rounded=0;orthogonalLoop=1;jettySize=auto;html=1;" edge="1" parent="1" source="rrUzfyZFF7jd85tH5sFD-23" target="rrUzfyZFF7jd85tH5sFD-31">
          <mxGeometry relative="1" as="geometry" />
        </mxCell>
        <mxCell id="rrUzfyZFF7jd85tH5sFD-33" value="否" style="edgeLabel;html=1;align=center;verticalAlign=middle;resizable=0;points=[];" vertex="1" connectable="0" parent="rrUzfyZFF7jd85tH5sFD-32">
          <mxGeometry x="-0.225" y="1" relative="1" as="geometry">
            <mxPoint as="offset" />
          </mxGeometry>
        </mxCell>
        <mxCell id="rrUzfyZFF7jd85tH5sFD-23" value="载具物料编码不为空，&lt;div&gt;且单位为空&lt;/div&gt;" style="whiteSpace=wrap;html=1;rounded=0;" vertex="1" parent="1">
          <mxGeometry x="294" y="740" width="120" height="60" as="geometry" />
        </mxCell>
        <mxCell id="rrUzfyZFF7jd85tH5sFD-30" value="" style="edgeStyle=orthogonalEdgeStyle;rounded=0;orthogonalLoop=1;jettySize=auto;html=1;" edge="1" parent="1" source="rrUzfyZFF7jd85tH5sFD-26" target="rrUzfyZFF7jd85tH5sFD-29">
          <mxGeometry relative="1" as="geometry" />
        </mxCell>
        <mxCell id="rrUzfyZFF7jd85tH5sFD-26" value="查物料表" style="whiteSpace=wrap;html=1;rounded=0;" vertex="1" parent="1">
          <mxGeometry x="494" y="740" width="120" height="60" as="geometry" />
        </mxCell>
        <mxCell id="rrUzfyZFF7jd85tH5sFD-29" value="补充载具单位" style="whiteSpace=wrap;html=1;rounded=0;" vertex="1" parent="1">
          <mxGeometry x="694" y="740" width="120" height="60" as="geometry" />
        </mxCell>
        <mxCell id="rrUzfyZFF7jd85tH5sFD-35" value="" style="edgeStyle=orthogonalEdgeStyle;rounded=0;orthogonalLoop=1;jettySize=auto;html=1;" edge="1" parent="1" source="rrUzfyZFF7jd85tH5sFD-31" target="rrUzfyZFF7jd85tH5sFD-34">
          <mxGeometry relative="1" as="geometry" />
        </mxCell>
        <mxCell id="rrUzfyZFF7jd85tH5sFD-36" value="是" style="edgeLabel;html=1;align=center;verticalAlign=middle;resizable=0;points=[];" vertex="1" connectable="0" parent="rrUzfyZFF7jd85tH5sFD-35">
          <mxGeometry x="-0.2273" y="2" relative="1" as="geometry">
            <mxPoint as="offset" />
          </mxGeometry>
        </mxCell>
        <mxCell id="rrUzfyZFF7jd85tH5sFD-38" value="" style="edgeStyle=orthogonalEdgeStyle;rounded=0;orthogonalLoop=1;jettySize=auto;html=1;" edge="1" parent="1" source="rrUzfyZFF7jd85tH5sFD-31" target="rrUzfyZFF7jd85tH5sFD-37">
          <mxGeometry relative="1" as="geometry" />
        </mxCell>
        <mxCell id="rrUzfyZFF7jd85tH5sFD-39" value="否" style="edgeLabel;html=1;align=center;verticalAlign=middle;resizable=0;points=[];" vertex="1" connectable="0" parent="rrUzfyZFF7jd85tH5sFD-38">
          <mxGeometry x="0.05" y="1" relative="1" as="geometry">
            <mxPoint as="offset" />
          </mxGeometry>
        </mxCell>
        <mxCell id="rrUzfyZFF7jd85tH5sFD-31" value="判断交易数量是否为空，&lt;div&gt;或者为0&lt;/div&gt;" style="whiteSpace=wrap;html=1;rounded=0;" vertex="1" parent="1">
          <mxGeometry x="286" y="910" width="136" height="60" as="geometry" />
        </mxCell>
        <mxCell id="rrUzfyZFF7jd85tH5sFD-34" value="更新载具数量为空" style="whiteSpace=wrap;html=1;rounded=0;" vertex="1" parent="1">
          <mxGeometry x="510" y="910" width="120" height="60" as="geometry" />
        </mxCell>
        <mxCell id="rrUzfyZFF7jd85tH5sFD-41" value="" style="edgeStyle=orthogonalEdgeStyle;rounded=0;orthogonalLoop=1;jettySize=auto;html=1;" edge="1" parent="1" source="rrUzfyZFF7jd85tH5sFD-37" target="rrUzfyZFF7jd85tH5sFD-40">
          <mxGeometry relative="1" as="geometry" />
        </mxCell>
        <mxCell id="rrUzfyZFF7jd85tH5sFD-42" value="&lt;div style=&quot;background-color:#2b2b2b;color:#a9b7c6&quot;&gt;&lt;pre style=&quot;font-family:&#39;JetBrains Mono&#39;,monospace;font-size:9.8pt;&quot;&gt;&lt;span style=&quot;color:#6a8759;&quot;&gt;TRANSACTION_OUT&lt;/span&gt;&lt;/pre&gt;&lt;/div&gt;" style="edgeLabel;html=1;align=center;verticalAlign=middle;resizable=0;points=[];" vertex="1" connectable="0" parent="rrUzfyZFF7jd85tH5sFD-41">
          <mxGeometry x="-0.05" relative="1" as="geometry">
            <mxPoint as="offset" />
          </mxGeometry>
        </mxCell>
        <mxCell id="rrUzfyZFF7jd85tH5sFD-69" value="" style="edgeStyle=orthogonalEdgeStyle;rounded=0;orthogonalLoop=1;jettySize=auto;html=1;" edge="1" parent="1" source="rrUzfyZFF7jd85tH5sFD-37" target="rrUzfyZFF7jd85tH5sFD-68">
          <mxGeometry relative="1" as="geometry" />
        </mxCell>
        <mxCell id="rrUzfyZFF7jd85tH5sFD-71" value="非&lt;span style=&quot;color: rgb(106, 135, 89); font-family: &amp;quot;JetBrains Mono&amp;quot;, monospace; font-size: 9.8pt; background-color: rgb(43, 43, 43);&quot;&gt;TRANSACTION_OUT&lt;/span&gt;" style="edgeLabel;html=1;align=center;verticalAlign=middle;resizable=0;points=[];" vertex="1" connectable="0" parent="rrUzfyZFF7jd85tH5sFD-69">
          <mxGeometry x="-0.05" y="1" relative="1" as="geometry">
            <mxPoint as="offset" />
          </mxGeometry>
        </mxCell>
        <mxCell id="rrUzfyZFF7jd85tH5sFD-37" value="交易方向" style="whiteSpace=wrap;html=1;rounded=0;" vertex="1" parent="1">
          <mxGeometry x="294" y="1050" width="120" height="60" as="geometry" />
        </mxCell>
        <mxCell id="rrUzfyZFF7jd85tH5sFD-44" value="" style="edgeStyle=orthogonalEdgeStyle;rounded=0;orthogonalLoop=1;jettySize=auto;html=1;" edge="1" parent="1" source="rrUzfyZFF7jd85tH5sFD-40" target="rrUzfyZFF7jd85tH5sFD-43">
          <mxGeometry relative="1" as="geometry" />
        </mxCell>
        <mxCell id="rrUzfyZFF7jd85tH5sFD-45" value="是" style="edgeLabel;html=1;align=center;verticalAlign=middle;resizable=0;points=[];" vertex="1" connectable="0" parent="rrUzfyZFF7jd85tH5sFD-44">
          <mxGeometry x="-0.075" y="1" relative="1" as="geometry">
            <mxPoint as="offset" />
          </mxGeometry>
        </mxCell>
        <mxCell id="rrUzfyZFF7jd85tH5sFD-47" value="" style="edgeStyle=orthogonalEdgeStyle;rounded=0;orthogonalLoop=1;jettySize=auto;html=1;" edge="1" parent="1" source="rrUzfyZFF7jd85tH5sFD-40" target="rrUzfyZFF7jd85tH5sFD-46">
          <mxGeometry relative="1" as="geometry" />
        </mxCell>
        <mxCell id="rrUzfyZFF7jd85tH5sFD-48" value="否" style="edgeLabel;html=1;align=center;verticalAlign=middle;resizable=0;points=[];" vertex="1" connectable="0" parent="rrUzfyZFF7jd85tH5sFD-47">
          <mxGeometry x="-0.2" y="2" relative="1" as="geometry">
            <mxPoint as="offset" />
          </mxGeometry>
        </mxCell>
        <mxCell id="rrUzfyZFF7jd85tH5sFD-40" value="交易数量比载具数量大，&lt;div&gt;且是否校验载具数量不为N&lt;/div&gt;" style="whiteSpace=wrap;html=1;rounded=0;" vertex="1" parent="1">
          <mxGeometry x="614" y="1142" width="120" height="60" as="geometry" />
        </mxCell>
        <mxCell id="rrUzfyZFF7jd85tH5sFD-43" value="报错提示" style="whiteSpace=wrap;html=1;rounded=0;" vertex="1" parent="1">
          <mxGeometry x="814" y="1142" width="120" height="60" as="geometry" />
        </mxCell>
        <mxCell id="rrUzfyZFF7jd85tH5sFD-50" value="" style="edgeStyle=orthogonalEdgeStyle;rounded=0;orthogonalLoop=1;jettySize=auto;html=1;" edge="1" parent="1" source="rrUzfyZFF7jd85tH5sFD-46" target="rrUzfyZFF7jd85tH5sFD-49">
          <mxGeometry relative="1" as="geometry" />
        </mxCell>
        <mxCell id="rrUzfyZFF7jd85tH5sFD-51" value="是" style="edgeLabel;html=1;align=center;verticalAlign=middle;resizable=0;points=[];" vertex="1" connectable="0" parent="rrUzfyZFF7jd85tH5sFD-50">
          <mxGeometry x="-0.15" y="1" relative="1" as="geometry">
            <mxPoint as="offset" />
          </mxGeometry>
        </mxCell>
        <mxCell id="rrUzfyZFF7jd85tH5sFD-53" value="" style="edgeStyle=orthogonalEdgeStyle;rounded=0;orthogonalLoop=1;jettySize=auto;html=1;" edge="1" parent="1" source="rrUzfyZFF7jd85tH5sFD-46" target="rrUzfyZFF7jd85tH5sFD-52">
          <mxGeometry relative="1" as="geometry" />
        </mxCell>
        <mxCell id="rrUzfyZFF7jd85tH5sFD-54" value="否" style="edgeLabel;html=1;align=center;verticalAlign=middle;resizable=0;points=[];" vertex="1" connectable="0" parent="rrUzfyZFF7jd85tH5sFD-53">
          <mxGeometry x="-0.075" y="-2" relative="1" as="geometry">
            <mxPoint as="offset" />
          </mxGeometry>
        </mxCell>
        <mxCell id="rrUzfyZFF7jd85tH5sFD-46" value="交易数量大于等于载具数量" style="whiteSpace=wrap;html=1;rounded=0;" vertex="1" parent="1">
          <mxGeometry x="614" y="1282" width="120" height="60" as="geometry" />
        </mxCell>
        <mxCell id="rrUzfyZFF7jd85tH5sFD-56" value="" style="edgeStyle=orthogonalEdgeStyle;rounded=0;orthogonalLoop=1;jettySize=auto;html=1;" edge="1" parent="1" source="rrUzfyZFF7jd85tH5sFD-49" target="rrUzfyZFF7jd85tH5sFD-55">
          <mxGeometry relative="1" as="geometry" />
        </mxCell>
        <mxCell id="rrUzfyZFF7jd85tH5sFD-59" value="修改成功" style="edgeLabel;html=1;align=center;verticalAlign=middle;resizable=0;points=[];" vertex="1" connectable="0" parent="rrUzfyZFF7jd85tH5sFD-56">
          <mxGeometry x="-0.075" y="1" relative="1" as="geometry">
            <mxPoint as="offset" />
          </mxGeometry>
        </mxCell>
        <mxCell id="rrUzfyZFF7jd85tH5sFD-49" value="修改载具数量为0，&lt;div&gt;载具状态为空闲，&lt;/div&gt;&lt;div&gt;其他字段为空&lt;/div&gt;" style="whiteSpace=wrap;html=1;rounded=0;" vertex="1" parent="1">
          <mxGeometry x="814" y="1282" width="120" height="60" as="geometry" />
        </mxCell>
        <mxCell id="rrUzfyZFF7jd85tH5sFD-61" value="" style="edgeStyle=orthogonalEdgeStyle;rounded=0;orthogonalLoop=1;jettySize=auto;html=1;" edge="1" parent="1" source="rrUzfyZFF7jd85tH5sFD-52" target="rrUzfyZFF7jd85tH5sFD-60">
          <mxGeometry relative="1" as="geometry" />
        </mxCell>
        <mxCell id="rrUzfyZFF7jd85tH5sFD-62" value="修改成功" style="edgeLabel;html=1;align=center;verticalAlign=middle;resizable=0;points=[];" vertex="1" connectable="0" parent="rrUzfyZFF7jd85tH5sFD-61">
          <mxGeometry x="0.025" y="-1" relative="1" as="geometry">
            <mxPoint as="offset" />
          </mxGeometry>
        </mxCell>
        <mxCell id="rrUzfyZFF7jd85tH5sFD-52" value="修改载具数量为载具数量减去交易数量，&lt;div&gt;载具状态为空闲，&lt;/div&gt;&lt;div&gt;其他字段为空&lt;/div&gt;" style="whiteSpace=wrap;html=1;rounded=0;" vertex="1" parent="1">
          <mxGeometry x="614" y="1422" width="120" height="60" as="geometry" />
        </mxCell>
        <mxCell id="rrUzfyZFF7jd85tH5sFD-55" value="解绑载具条码关系&lt;div&gt;&lt;div style=&quot;background-color:#2b2b2b;color:#a9b7c6&quot;&gt;&lt;pre style=&quot;font-family:&#39;JetBrains Mono&#39;,monospace;font-size:9.8pt;&quot;&gt;&lt;span style=&quot;background-color:#364135;&quot;&gt;bind = 0&lt;/span&gt;&lt;/pre&gt;&lt;/div&gt;&lt;/div&gt;" style="whiteSpace=wrap;html=1;rounded=0;" vertex="1" parent="1">
          <mxGeometry x="1014" y="1282" width="120" height="60" as="geometry" />
        </mxCell>
        <mxCell id="rrUzfyZFF7jd85tH5sFD-66" value="" style="edgeStyle=orthogonalEdgeStyle;rounded=0;orthogonalLoop=1;jettySize=auto;html=1;" edge="1" parent="1" source="rrUzfyZFF7jd85tH5sFD-60" target="rrUzfyZFF7jd85tH5sFD-65">
          <mxGeometry relative="1" as="geometry" />
        </mxCell>
        <mxCell id="rrUzfyZFF7jd85tH5sFD-67" value="是" style="edgeLabel;html=1;align=center;verticalAlign=middle;resizable=0;points=[];" vertex="1" connectable="0" parent="rrUzfyZFF7jd85tH5sFD-66">
          <mxGeometry x="-0.05" y="-2" relative="1" as="geometry">
            <mxPoint as="offset" />
          </mxGeometry>
        </mxCell>
        <mxCell id="rrUzfyZFF7jd85tH5sFD-60" value="标签号参数不为空" style="whiteSpace=wrap;html=1;rounded=0;" vertex="1" parent="1">
          <mxGeometry x="614" y="1562" width="120" height="60" as="geometry" />
        </mxCell>
        <mxCell id="rrUzfyZFF7jd85tH5sFD-65" value="解绑指定标签的载具条码关系&lt;div&gt;bind=0&lt;/div&gt;" style="whiteSpace=wrap;html=1;rounded=0;" vertex="1" parent="1">
          <mxGeometry x="814" y="1562" width="120" height="60" as="geometry" />
        </mxCell>
        <mxCell id="rrUzfyZFF7jd85tH5sFD-73" value="" style="edgeStyle=orthogonalEdgeStyle;rounded=0;orthogonalLoop=1;jettySize=auto;html=1;" edge="1" parent="1" source="rrUzfyZFF7jd85tH5sFD-68" target="rrUzfyZFF7jd85tH5sFD-72">
          <mxGeometry relative="1" as="geometry" />
        </mxCell>
        <mxCell id="rrUzfyZFF7jd85tH5sFD-74" value="是" style="edgeLabel;html=1;align=center;verticalAlign=middle;resizable=0;points=[];" vertex="1" connectable="0" parent="rrUzfyZFF7jd85tH5sFD-73">
          <mxGeometry x="-0.175" y="-2" relative="1" as="geometry">
            <mxPoint as="offset" />
          </mxGeometry>
        </mxCell>
        <mxCell id="rrUzfyZFF7jd85tH5sFD-102" value="" style="edgeStyle=orthogonalEdgeStyle;rounded=0;orthogonalLoop=1;jettySize=auto;html=1;" edge="1" parent="1" source="rrUzfyZFF7jd85tH5sFD-68" target="rrUzfyZFF7jd85tH5sFD-101">
          <mxGeometry relative="1" as="geometry" />
        </mxCell>
        <mxCell id="rrUzfyZFF7jd85tH5sFD-103" value="否" style="edgeLabel;html=1;align=center;verticalAlign=middle;resizable=0;points=[];" vertex="1" connectable="0" parent="rrUzfyZFF7jd85tH5sFD-102">
          <mxGeometry x="0.15" y="-1" relative="1" as="geometry">
            <mxPoint as="offset" />
          </mxGeometry>
        </mxCell>
        <mxCell id="rrUzfyZFF7jd85tH5sFD-68" value="载具数量为空&lt;div&gt;或者载具数量等于0&lt;/div&gt;&lt;div&gt;或者载具状态为空闲&lt;/div&gt;" style="whiteSpace=wrap;html=1;rounded=0;" vertex="1" parent="1">
          <mxGeometry x="-30" y="1142" width="120" height="60" as="geometry" />
        </mxCell>
        <mxCell id="rrUzfyZFF7jd85tH5sFD-76" value="" style="edgeStyle=orthogonalEdgeStyle;rounded=0;orthogonalLoop=1;jettySize=auto;html=1;" edge="1" parent="1" source="rrUzfyZFF7jd85tH5sFD-72" target="rrUzfyZFF7jd85tH5sFD-75">
          <mxGeometry relative="1" as="geometry" />
        </mxCell>
        <mxCell id="rrUzfyZFF7jd85tH5sFD-77" value="是" style="edgeLabel;html=1;align=center;verticalAlign=middle;resizable=0;points=[];" vertex="1" connectable="0" parent="rrUzfyZFF7jd85tH5sFD-76">
          <mxGeometry x="-0.275" relative="1" as="geometry">
            <mxPoint as="offset" />
          </mxGeometry>
        </mxCell>
        <mxCell id="rrUzfyZFF7jd85tH5sFD-79" value="" style="edgeStyle=orthogonalEdgeStyle;rounded=0;orthogonalLoop=1;jettySize=auto;html=1;" edge="1" parent="1" source="rrUzfyZFF7jd85tH5sFD-72" target="rrUzfyZFF7jd85tH5sFD-78">
          <mxGeometry relative="1" as="geometry" />
        </mxCell>
        <mxCell id="rrUzfyZFF7jd85tH5sFD-80" value="否" style="edgeLabel;html=1;align=center;verticalAlign=middle;resizable=0;points=[];" vertex="1" connectable="0" parent="rrUzfyZFF7jd85tH5sFD-79">
          <mxGeometry x="0.025" y="-4" relative="1" as="geometry">
            <mxPoint as="offset" />
          </mxGeometry>
        </mxCell>
        <mxCell id="rrUzfyZFF7jd85tH5sFD-72" value="校验物料编码为空" style="whiteSpace=wrap;html=1;rounded=0;" vertex="1" parent="1">
          <mxGeometry x="-30" y="1390" width="120" height="60" as="geometry" />
        </mxCell>
        <mxCell id="rrUzfyZFF7jd85tH5sFD-75" value="报错提示" style="whiteSpace=wrap;html=1;rounded=0;" vertex="1" parent="1">
          <mxGeometry x="170" y="1390" width="120" height="60" as="geometry" />
        </mxCell>
        <mxCell id="rrUzfyZFF7jd85tH5sFD-82" value="" style="edgeStyle=orthogonalEdgeStyle;rounded=0;orthogonalLoop=1;jettySize=auto;html=1;" edge="1" parent="1" source="rrUzfyZFF7jd85tH5sFD-78" target="rrUzfyZFF7jd85tH5sFD-81">
          <mxGeometry relative="1" as="geometry" />
        </mxCell>
        <mxCell id="rrUzfyZFF7jd85tH5sFD-83" value="是" style="edgeLabel;html=1;align=center;verticalAlign=middle;resizable=0;points=[];" vertex="1" connectable="0" parent="rrUzfyZFF7jd85tH5sFD-82">
          <mxGeometry x="-0.25" y="1" relative="1" as="geometry">
            <mxPoint as="offset" />
          </mxGeometry>
        </mxCell>
        <mxCell id="rrUzfyZFF7jd85tH5sFD-85" value="" style="edgeStyle=orthogonalEdgeStyle;rounded=0;orthogonalLoop=1;jettySize=auto;html=1;" edge="1" parent="1" source="rrUzfyZFF7jd85tH5sFD-78">
          <mxGeometry relative="1" as="geometry">
            <mxPoint x="30" y="1708" as="targetPoint" />
            <Array as="points">
              <mxPoint x="30" y="1708" />
            </Array>
          </mxGeometry>
        </mxCell>
        <mxCell id="rrUzfyZFF7jd85tH5sFD-86" value="否" style="edgeLabel;html=1;align=center;verticalAlign=middle;resizable=0;points=[];" vertex="1" connectable="0" parent="rrUzfyZFF7jd85tH5sFD-85">
          <mxGeometry x="-0.075" relative="1" as="geometry">
            <mxPoint as="offset" />
          </mxGeometry>
        </mxCell>
        <mxCell id="rrUzfyZFF7jd85tH5sFD-78" value="子库编码为空" style="whiteSpace=wrap;html=1;rounded=0;" vertex="1" parent="1">
          <mxGeometry x="-30" y="1530" width="120" height="60" as="geometry" />
        </mxCell>
        <mxCell id="rrUzfyZFF7jd85tH5sFD-81" value="报错提示" style="whiteSpace=wrap;html=1;rounded=0;" vertex="1" parent="1">
          <mxGeometry x="170" y="1530" width="120" height="60" as="geometry" />
        </mxCell>
        <mxCell id="rrUzfyZFF7jd85tH5sFD-88" value="" style="edgeStyle=orthogonalEdgeStyle;rounded=0;orthogonalLoop=1;jettySize=auto;html=1;" edge="1" parent="1" source="rrUzfyZFF7jd85tH5sFD-84" target="rrUzfyZFF7jd85tH5sFD-87">
          <mxGeometry relative="1" as="geometry" />
        </mxCell>
        <mxCell id="rrUzfyZFF7jd85tH5sFD-89" value="是" style="edgeLabel;html=1;align=center;verticalAlign=middle;resizable=0;points=[];" vertex="1" connectable="0" parent="rrUzfyZFF7jd85tH5sFD-88">
          <mxGeometry x="-0.1" y="-3" relative="1" as="geometry">
            <mxPoint as="offset" />
          </mxGeometry>
        </mxCell>
        <mxCell id="rrUzfyZFF7jd85tH5sFD-84" value="货位编码不为空" style="whiteSpace=wrap;html=1;rounded=0;" vertex="1" parent="1">
          <mxGeometry x="-210" y="1768" width="120" height="60" as="geometry" />
        </mxCell>
        <mxCell id="rrUzfyZFF7jd85tH5sFD-87" value="查货位表，&lt;div&gt;填充载具货位信息&lt;/div&gt;" style="whiteSpace=wrap;html=1;rounded=0;" vertex="1" parent="1">
          <mxGeometry x="-210" y="1948" width="120" height="60" as="geometry" />
        </mxCell>
        <mxCell id="rrUzfyZFF7jd85tH5sFD-92" value="" style="edgeStyle=orthogonalEdgeStyle;rounded=0;orthogonalLoop=1;jettySize=auto;html=1;" edge="1" parent="1" source="rrUzfyZFF7jd85tH5sFD-90" target="rrUzfyZFF7jd85tH5sFD-91">
          <mxGeometry relative="1" as="geometry" />
        </mxCell>
        <mxCell id="rrUzfyZFF7jd85tH5sFD-93" value="是" style="edgeLabel;html=1;align=center;verticalAlign=middle;resizable=0;points=[];" vertex="1" connectable="0" parent="rrUzfyZFF7jd85tH5sFD-92">
          <mxGeometry y="4" relative="1" as="geometry">
            <mxPoint as="offset" />
          </mxGeometry>
        </mxCell>
        <mxCell id="rrUzfyZFF7jd85tH5sFD-90" value="子库编码不为空" style="rounded=0;whiteSpace=wrap;html=1;" vertex="1" parent="1">
          <mxGeometry x="-20" y="1768" width="120" height="60" as="geometry" />
        </mxCell>
        <mxCell id="rrUzfyZFF7jd85tH5sFD-91" value="查子库表，&lt;div&gt;填充载具子库名称信息&lt;/div&gt;" style="whiteSpace=wrap;html=1;rounded=0;" vertex="1" parent="1">
          <mxGeometry x="-20" y="1948" width="120" height="60" as="geometry" />
        </mxCell>
        <mxCell id="rrUzfyZFF7jd85tH5sFD-96" value="" style="edgeStyle=orthogonalEdgeStyle;rounded=0;orthogonalLoop=1;jettySize=auto;html=1;" edge="1" parent="1" source="rrUzfyZFF7jd85tH5sFD-94" target="rrUzfyZFF7jd85tH5sFD-95">
          <mxGeometry relative="1" as="geometry" />
        </mxCell>
        <mxCell id="rrUzfyZFF7jd85tH5sFD-97" value="是" style="edgeLabel;html=1;align=center;verticalAlign=middle;resizable=0;points=[];" vertex="1" connectable="0" parent="rrUzfyZFF7jd85tH5sFD-96">
          <mxGeometry x="-0.0167" y="-2" relative="1" as="geometry">
            <mxPoint as="offset" />
          </mxGeometry>
        </mxCell>
        <mxCell id="rrUzfyZFF7jd85tH5sFD-94" value="货区编码不为空" style="rounded=0;whiteSpace=wrap;html=1;" vertex="1" parent="1">
          <mxGeometry x="166" y="1768" width="120" height="60" as="geometry" />
        </mxCell>
        <mxCell id="rrUzfyZFF7jd85tH5sFD-95" value="查货区表，&lt;div&gt;填充载具货区名称信息&lt;/div&gt;" style="whiteSpace=wrap;html=1;rounded=0;" vertex="1" parent="1">
          <mxGeometry x="166" y="1948" width="120" height="60" as="geometry" />
        </mxCell>
        <mxCell id="rrUzfyZFF7jd85tH5sFD-99" value="更新载具表" style="whiteSpace=wrap;html=1;rounded=0;" vertex="1" parent="1">
          <mxGeometry x="-20" y="2163" width="120" height="60" as="geometry" />
        </mxCell>
        <mxCell id="rrUzfyZFF7jd85tH5sFD-105" value="" style="edgeStyle=orthogonalEdgeStyle;rounded=0;orthogonalLoop=1;jettySize=auto;html=1;" edge="1" parent="1" source="rrUzfyZFF7jd85tH5sFD-101" target="rrUzfyZFF7jd85tH5sFD-104">
          <mxGeometry relative="1" as="geometry" />
        </mxCell>
        <mxCell id="rrUzfyZFF7jd85tH5sFD-106" value="不一致" style="edgeLabel;html=1;align=center;verticalAlign=middle;resizable=0;points=[];" vertex="1" connectable="0" parent="rrUzfyZFF7jd85tH5sFD-105">
          <mxGeometry x="0.1" relative="1" as="geometry">
            <mxPoint as="offset" />
          </mxGeometry>
        </mxCell>
        <mxCell id="rrUzfyZFF7jd85tH5sFD-108" value="" style="edgeStyle=orthogonalEdgeStyle;rounded=0;orthogonalLoop=1;jettySize=auto;html=1;" edge="1" parent="1" source="rrUzfyZFF7jd85tH5sFD-101" target="rrUzfyZFF7jd85tH5sFD-107">
          <mxGeometry relative="1" as="geometry" />
        </mxCell>
        <mxCell id="rrUzfyZFF7jd85tH5sFD-109" value="一致" style="edgeLabel;html=1;align=center;verticalAlign=middle;resizable=0;points=[];" vertex="1" connectable="0" parent="rrUzfyZFF7jd85tH5sFD-108">
          <mxGeometry x="-0.075" y="-3" relative="1" as="geometry">
            <mxPoint as="offset" />
          </mxGeometry>
        </mxCell>
        <mxCell id="rrUzfyZFF7jd85tH5sFD-101" value="校验载具物料编码与入参物料编码是否一致" style="whiteSpace=wrap;html=1;rounded=0;" vertex="1" parent="1">
          <mxGeometry x="-230" y="1142" width="120" height="60" as="geometry" />
        </mxCell>
        <mxCell id="rrUzfyZFF7jd85tH5sFD-104" value="报错提示" style="whiteSpace=wrap;html=1;rounded=0;" vertex="1" parent="1">
          <mxGeometry x="-430" y="1142" width="120" height="60" as="geometry" />
        </mxCell>
        <mxCell id="rrUzfyZFF7jd85tH5sFD-107" value="修改载具状态为LOADING" style="whiteSpace=wrap;html=1;rounded=0;" vertex="1" parent="1">
          <mxGeometry x="-230" y="1282" width="120" height="60" as="geometry" />
        </mxCell>
      </root>
    </mxGraphModel>
  </diagram>
</mxfile>
